<svg width="522" height="476" viewBox="0 0 522 476" fill="none" xmlns="http://www.w3.org/2000/svg">
<path fill-rule="evenodd" clip-rule="evenodd" d="M320.004 374.088C333.787 379.231 374.859 372.104 393.151 370.915C395.565 370.757 398.809 371.176 399.077 373.337C399.175 374.139 398.775 374.915 398.54 375.696C396.863 381.274 403.545 385.861 409.638 387.542C424.338 391.6 440.243 389.211 455.468 386.793C463.742 385.478 472.726 383.81 478.191 378.023C484.255 371.603 483.989 362.241 482.65 353.966C479.558 334.868 472.517 316.415 462.901 299.235C452.718 281.039 437.566 262.885 415.414 258.519C399.072 255.298 381.918 260.309 367.068 267.499C359.064 271.374 350.955 275.756 345.737 282.514C312.508 325.54 306.382 369.006 320.004 374.088Z" fill="#333456"/>
<path fill-rule="evenodd" clip-rule="evenodd" d="M481.486 351.999C478.416 332.957 471.428 314.558 461.886 297.427C451.781 279.283 436.748 261.18 414.772 256.824C398.561 253.609 381.544 258.603 366.815 265.768C360.532 268.825 354.19 272.203 349.248 276.817C357.051 293.803 362.846 311.729 369.735 329.083C373.319 338.112 377.651 346.833 380.886 356.004C382.45 360.433 383.689 365.079 385.347 369.525C388.061 369.249 390.548 369.021 392.707 368.882C393.536 368.827 394.463 368.845 395.334 368.976C400.785 359.972 404.809 350.128 411.545 341.884C427.507 322.342 455.017 328.364 471.245 344.219C475.31 348.19 478.934 352.693 482.146 357.538C482.011 355.668 481.777 353.808 481.486 351.999Z" fill="#1D1B35"/>
<path fill-rule="evenodd" clip-rule="evenodd" d="M394.38 369.413C399.751 354.134 404.651 338.706 411.265 323.842C414.198 317.254 437.299 272.628 438.876 267.995C432.175 262.801 424.508 258.908 415.738 257.182C399.4 253.966 382.248 258.971 367.401 266.153C359.399 270.023 351.291 274.4 346.074 281.149C345.161 282.33 344.273 283.51 343.4 284.688C358.906 311.604 364.047 342.612 375.327 371.266C382.336 370.467 388.689 369.75 393.475 369.44C393.767 369.42 394.071 369.414 394.38 369.413Z" fill="#FF7000"/>
<path fill-rule="evenodd" clip-rule="evenodd" d="M415.236 257.418C407.186 255.805 398.936 256.258 390.873 258.012C390.901 258.388 390.912 258.775 390.886 259.185C389.279 284.669 391.371 310.27 389.071 335.723C388.013 347.428 386.057 359.056 382.472 370.24C386.621 369.782 390.37 369.405 393.449 369.205C393.735 369.185 394.034 369.179 394.336 369.179C399.599 353.965 404.398 338.603 410.881 323.803C413.755 317.243 436.4 272.811 437.945 268.198C431.367 263.022 423.842 259.142 415.236 257.418Z" fill="#EA6F0E"/>
<path fill-rule="evenodd" clip-rule="evenodd" d="M362.397 264.157C363.679 272.956 364.962 281.756 366.244 290.554C367.721 300.692 377.637 338.474 382.743 349.715C384.479 353.541 402.837 298.489 407.028 286.388C410.414 276.614 413.798 266.841 417.183 257.068C406.862 256.55 396.48 257.437 386.388 259.697" fill="#F5C8B9"/>
<path fill-rule="evenodd" clip-rule="evenodd" d="M390.588 261.821C389 287.262 391.076 312.816 388.768 338.224C388.638 339.67 388.49 341.115 388.329 342.559C394.614 327.624 405.123 297.181 408.181 288.624C411.609 279.036 415.035 269.447 418.461 259.859C409.136 259.413 399.761 260.081 390.588 261.821Z" fill="#F1B19E"/>
<path fill-rule="evenodd" clip-rule="evenodd" d="M398.229 136.367C397.441 132.076 398.25 127.644 399.499 123.465C401.644 116.287 405.327 109.237 411.459 104.956C417.591 100.674 426.542 99.8939 432.347 104.616C436.868 108.294 438.737 114.431 442.999 118.409C447.018 122.159 452.653 123.535 458.064 124.459C466.677 125.931 475.558 126.652 483.579 130.126C491.599 133.601 498.817 140.624 499.524 149.358C500.145 157.024 495.703 164.217 490.439 169.81C480.726 180.13 467.557 187.116 453.585 189.362" fill="#333456"/>
<path fill-rule="evenodd" clip-rule="evenodd" d="M458.12 135.36C442.011 124.264 422.959 120.797 403.947 119.716C403.533 120.847 403.156 121.99 402.821 123.139C401.61 127.309 400.825 131.732 401.597 136.015L455.53 188.958C467.031 187.072 477.962 181.792 486.778 173.986C480.818 158.648 471.582 144.63 458.12 135.36Z" fill="#1D1B35"/>
<path fill-rule="evenodd" clip-rule="evenodd" d="M445.797 150.384C450.531 141.687 455.491 133.227 461.648 125.712C460.425 125.522 459.205 125.328 457.991 125.118C453.134 124.28 448.094 123.058 444.273 119.979C437.949 125.368 432.036 131.101 426.842 137.904C423.141 142.75 419.866 147.839 416.572 152.957L435.573 171.314C438.667 164.184 442.088 157.198 445.797 150.384Z" fill="#DB373D"/>
<path fill-rule="evenodd" clip-rule="evenodd" d="M436.318 126.974C432.641 130.4 429.156 134.046 425.943 138.077C422.122 142.868 418.739 147.897 415.336 152.955L434.889 171.05C438.088 164.006 441.625 157.104 445.457 150.371C448.394 145.21 451.421 140.138 454.744 135.297C448.914 131.715 442.731 129.012 436.318 126.974Z" fill="#BE323A"/>
<path fill-rule="evenodd" clip-rule="evenodd" d="M417.84 137.064L399.237 96.4309C398.807 95.4884 397.675 95.0681 396.711 95.4921C395.747 95.9149 395.315 97.0229 395.746 97.9654L414.35 138.598C414.781 139.541 415.913 139.961 416.877 139.537C417.841 139.115 418.272 138.007 417.84 137.064Z" fill="#F0A44E"/>
<path fill-rule="evenodd" clip-rule="evenodd" d="M404.102 94.0333C404.165 98.175 400.856 101.582 396.714 101.644C392.573 101.704 389.164 98.3981 389.104 94.2563C389.042 90.1146 392.35 86.7072 396.491 86.6457C400.633 86.5842 404.041 89.8915 404.102 94.0333Z" fill="#BE323A"/>
<path fill-rule="evenodd" clip-rule="evenodd" d="M400.087 94.5032C400.141 97.8158 397.723 100.534 394.686 100.574C391.649 100.614 389.142 97.96 389.087 94.6462C389.033 91.3337 391.45 88.615 394.488 88.5758C397.525 88.5366 400.032 91.1907 400.087 94.5032Z" fill="#DB373D"/>
<path fill-rule="evenodd" clip-rule="evenodd" d="M456.968 151.79L495.321 127.285C496.211 126.717 496.474 125.528 495.911 124.63C495.347 123.732 494.168 123.466 493.278 124.034L454.926 148.539C454.035 149.107 453.772 150.296 454.336 151.194C454.9 152.091 456.079 152.358 456.968 151.79Z" fill="#F0A44E"/>
<path fill-rule="evenodd" clip-rule="evenodd" d="M509.235 120.719C509.296 124.86 505.989 128.268 501.847 128.329C497.705 128.391 494.299 125.083 494.237 120.942C494.175 116.8 497.482 113.393 501.625 113.331C505.766 113.27 509.173 116.577 509.235 120.719Z" fill="#BE323A"/>
<path fill-rule="evenodd" clip-rule="evenodd" d="M506.218 121.223C506.273 124.537 503.855 127.253 500.818 127.294C497.781 127.333 495.273 124.679 495.219 121.367C495.163 118.053 497.582 115.337 500.62 115.296C503.657 115.257 506.164 117.911 506.218 121.223Z" fill="#DB373D"/>
<path fill-rule="evenodd" clip-rule="evenodd" d="M347.003 178.167C350.094 172.096 357.827 165.184 364.57 165.285C371.314 165.384 377.807 171.884 376.515 178.59C385.28 175.192 395.309 175.266 404.03 178.79C412.754 182.315 420.084 189.256 424.145 197.836C427.193 204.276 428.442 211.518 431.912 217.734C432.41 218.626 433.89 222.194 434.868 222.462C435.518 222.641 436.296 222.517 436.787 222.984C437.342 223.509 431.701 228.695 431.486 229.432C429.259 237.063 409.945 257.572 407.672 265.189C417.201 266.201 443.16 257.357 450.613 251.264C461.517 242.347 468.085 230.966 472.353 213.501C474.744 203.713 475.047 192.646 473.923 182.624C472.523 170.132 468.241 160.918 462.757 152.731C454.029 139.703 439.198 131.178 424.068 127.602C409.253 124.101 393.483 123.018 378.995 127.692C364.507 132.367 351.515 143.539 347.368 158.363C345.818 163.904 344.713 170.528 347.003 178.167Z" fill="#333456"/>
<path fill-rule="evenodd" clip-rule="evenodd" d="M409.378 266.036C412.754 266.385 418.159 265.539 424.089 264.033C424.925 262.844 425.754 261.649 426.553 260.434C431.369 253.111 434.648 245.239 437.372 236.947C441.84 223.349 444.056 209.657 441.723 195.425C440.728 189.353 439.243 183.162 436.191 177.76C433.01 172.131 427.937 168.122 422.461 164.815C417.425 161.773 412.24 158.974 406.67 157.335C400.524 155.528 394.132 154.569 388.141 152.248C381.753 149.771 375.478 145.926 372.034 139.812C370.862 137.731 370.23 135.617 369.954 133.481C359.675 139.273 351.306 148.381 348.101 159.58C346.52 165.105 345.392 171.71 347.716 179.324C350.864 173.27 358.737 166.373 365.597 166.469C372.459 166.563 379.06 173.038 377.741 179.725C386.66 176.331 396.863 176.397 405.734 179.904C414.607 183.412 422.059 190.327 426.184 198.878C429.281 205.295 430.546 212.514 434.072 218.708C434.579 219.597 436.081 223.154 437.076 223.421C437.737 223.598 438.529 223.474 439.029 223.939C439.592 224.461 433.849 229.637 433.631 230.372C431.359 237.98 411.695 258.441 409.378 266.036Z" fill="#1D1B35"/>
<path fill-rule="evenodd" clip-rule="evenodd" d="M354.115 168.939C322.613 230.934 341.183 276.917 349.364 281.63C372.132 294.743 411.042 271.105 418.976 257.587C423.471 249.928 425.561 244.408 428.602 240.74C428.602 240.74 434.579 242.961 438.68 239.77C442.779 236.579 447.251 227.284 443.771 223.413C442.764 222.29 440 220.921 436.937 221.967C436.937 221.967 444.492 199.386 444.846 193.949C445.199 188.511 446.318 182.925 444.757 177.706C442.482 170.101 435.119 165.248 427.843 162.165C416.35 157.296 378.972 139.95 354.115 168.939Z" fill="#F5C8B9"/>
<path fill-rule="evenodd" clip-rule="evenodd" d="M443.833 223.424C442.834 222.301 440.093 220.931 437.056 221.977C437.056 221.977 444.541 199.397 444.89 193.959C445.238 188.522 446.346 182.936 444.797 177.716C442.539 170.11 435.237 165.255 428.022 162.17C420.49 158.95 401.748 150.28 382.79 153.133C384.081 157.831 384.583 162.677 384.026 167.685C383.627 171.269 382.948 174.929 381.739 178.331C381.656 178.564 381.564 178.793 381.472 179.023C382.047 178.99 382.621 178.96 383.197 178.944C386.11 178.862 389.029 179.42 391.783 180.378C397.401 182.333 402.461 185.734 406.199 190.437C419.616 207.306 417.541 235.247 406.473 252.796C398.145 266.003 385.26 276.88 371.341 283.597C369.95 284.27 368.536 284.867 367.113 285.431C388.419 284.755 413.141 268.112 419.26 257.593C423.714 249.934 425.785 244.415 428.799 240.748C428.799 240.748 434.725 242.971 438.79 239.781C442.854 236.591 447.284 227.296 443.833 223.424Z" fill="#F1B19E"/>
<path fill-rule="evenodd" clip-rule="evenodd" d="M379.608 222.381C379.593 221.16 380.267 219.932 381.197 218.996C382.145 218.06 383.359 217.358 384.726 216.968C386.11 216.575 387.629 216.546 388.994 216.802C390.382 217.045 391.697 217.561 392.903 218.31C393.507 218.683 394.065 219.142 394.594 219.656C395.102 220.156 395.617 220.846 395.933 221.406C396.569 222.589 396.823 223.368 397.142 223.929C397.875 225.164 399.352 226.442 401.782 226.985C399.894 228.681 396.48 228.695 394.06 226.888C392.763 225.944 392.074 224.73 391.517 224.111C391.246 223.759 391.06 223.608 390.774 223.359C390.511 223.116 390.198 222.899 389.869 222.684C388.542 221.838 386.907 221.173 385.321 221.016C384.474 220.924 383.547 220.975 382.586 221.155C381.619 221.347 380.641 221.682 379.608 222.381Z" fill="#333456"/>
<path fill-rule="evenodd" clip-rule="evenodd" d="M359.817 216.856C359.03 214.728 357.996 213.088 356.797 211.9C356.2 211.302 355.543 210.828 354.853 210.415C354.177 209.967 353.37 209.648 352.907 209.518C352.403 209.424 352.233 209.362 351.455 209.504C350.703 209.615 349.508 210.103 347.863 210.182C347.051 210.224 346.167 210.094 345.422 209.807C344.656 209.506 344.101 209.112 343.605 208.693C342.626 207.821 341.928 206.72 341.826 205.539C343.98 206.525 346.244 206.684 347.05 205.989C347.59 205.691 348.361 205.168 349.7 204.628C350.998 204.076 353.149 203.876 354.738 204.462C356.363 204.992 357.42 205.834 358.374 206.748C359.324 207.678 360.112 208.781 360.555 209.981C361.466 212.368 361.199 214.946 359.817 216.856Z" fill="#333456"/>
<path fill-rule="evenodd" clip-rule="evenodd" d="M366.831 213.088C366.831 213.088 358.983 227.246 354.238 233.276C349.492 239.303 346.861 244.7 355.361 244.507C358.706 244.431 359.543 242.726 359.543 242.726C363.413 239.494 366.831 213.088 366.831 213.088Z" fill="#E98B7F"/>
<path fill-rule="evenodd" clip-rule="evenodd" d="M345.579 249.681C345.579 249.681 343.623 259.917 350.227 262.631C357.883 265.776 363.39 258.347 366.391 255.367C366.391 255.367 356.193 254.399 351.888 252.754C347.584 251.106 345.579 249.681 345.579 249.681Z" fill="#DB373D"/>
<path fill-rule="evenodd" clip-rule="evenodd" d="M344.355 247.731C344.355 247.731 344.581 253.243 350.704 256.635C355.37 259.223 360.037 258.751 367.637 255.39C367.637 255.39 359.933 254.609 357.273 251.749C354.399 248.66 352.036 252.313 352.036 252.313C352.036 252.313 351.026 249.175 349.402 248.484C347.778 247.794 347.887 250.2 344.355 247.731Z" fill="#BE323A"/>
<path fill-rule="evenodd" clip-rule="evenodd" d="M384.247 255.284C384.061 255.291 383.875 255.294 383.687 255.29C377.614 255.198 372.763 250.199 372.857 244.126C372.946 238.239 377.643 233.502 383.462 233.298C383.648 233.292 383.834 233.291 384.021 233.293C390.095 233.386 394.945 238.385 394.854 244.458C394.764 250.345 390.067 255.081 384.247 255.284Z" fill="#EEA59D"/>
<mask id="mask0" mask-type="alpha" maskUnits="userSpaceOnUse" x="333" y="150" width="116" height="137">
<path fill-rule="evenodd" clip-rule="evenodd" d="M353.694 168.4C322.173 230.599 340.761 276.738 348.949 281.467C371.736 294.626 410.674 270.912 418.613 257.351C423.111 249.666 425.202 244.128 428.245 240.448C428.245 240.448 434.226 242.677 438.33 239.476C442.432 236.274 446.907 226.948 443.424 223.064C442.415 221.937 439.649 220.563 436.584 221.613C436.584 221.613 444.143 198.957 444.497 193.501C444.85 188.046 445.969 182.442 444.406 177.204C442.129 169.574 434.759 164.704 427.478 161.61C415.975 156.724 378.567 139.316 353.694 168.4Z" fill="white"/>
</mask>
<g mask="url(#mask0)">
<path fill-rule="evenodd" clip-rule="evenodd" d="M342.05 236.431C341.87 236.437 341.69 236.438 341.507 236.436C339.922 236.411 338.423 236.04 337.079 235.392C337.129 229.185 337.667 222.454 338.855 215.281C339.633 215.069 340.445 214.941 341.283 214.912C341.463 214.906 341.643 214.904 341.826 214.907C347.72 214.998 352.428 219.893 352.341 225.839C352.257 231.6 347.698 236.234 342.05 236.431Z" fill="#EEA59D"/>
</g>
<path fill-rule="evenodd" clip-rule="evenodd" d="M417.946 201.389C418.638 208.491 417.175 221.439 420.642 227.596C421.039 228.301 422.056 230.677 422.948 231.754C423.749 231.084 428.582 223.622 434.06 222.015C439.137 220.523 447.331 219.555 452.681 219.291C457.976 219.028 463.215 219.449 468.41 220.518C469.201 220.683 469.944 220.908 470.649 221.177C471.299 219.087 471.909 216.907 472.476 214.615C474.87 204.918 475.176 193.953 474.056 184.025C472.659 171.649 468.381 162.522 462.899 154.413C454.175 141.508 439.348 133.067 424.219 129.53C409.406 126.066 393.636 124.998 379.146 129.633C364.657 134.269 351.662 145.342 347.51 160.03C345.958 165.52 344.851 172.083 347.138 179.65C350.231 173.635 357.967 166.785 364.71 166.882C371.454 166.978 377.945 173.416 376.65 180.06C385.416 176.691 395.697 176.18 404.165 180.249C412.153 184.088 416.798 189.601 417.946 201.389Z" fill="#333456"/>
<path fill-rule="evenodd" clip-rule="evenodd" d="M417.839 201.061C418.535 208.201 417.062 221.217 420.552 227.406C420.952 228.115 421.975 230.503 422.873 231.587C423.679 230.913 428.545 223.41 434.06 221.795C435.592 221.345 437.407 220.944 439.342 220.594C440.727 212.304 440.98 203.915 439.583 195.328C438.597 189.262 437.125 183.077 434.103 177.679C430.954 172.054 425.933 168.048 420.514 164.743C415.529 161.702 410.397 158.904 404.886 157.265C398.803 155.457 392.478 154.497 386.549 152.176C380.227 149.7 374.017 145.857 370.607 139.748C369.447 137.669 368.821 135.557 368.547 133.423C358.377 139.205 350.099 148.301 346.932 159.488C345.369 165.007 344.255 171.605 346.557 179.212C349.67 173.165 357.458 166.278 364.247 166.375C371.036 166.472 377.57 172.943 376.267 179.622C385.092 176.235 395.442 175.72 403.967 179.811C412.008 183.669 416.684 189.211 417.839 201.061Z" fill="#1D1B35"/>
<path fill-rule="evenodd" clip-rule="evenodd" d="M331.217 154.163C317.744 148.25 307.681 136.345 304.754 122.855C304.562 121.971 304.37 121.026 303.696 120.377C302.852 119.566 301.501 119.445 300.273 119.356C285.926 118.312 271.829 114.986 258.796 109.571C246.018 104.262 233.169 95.9263 229.964 83.3519C214.486 22.6179 297.201 8.33548 328.213 7.17878C397.188 4.60263 401.393 50.7628 395.924 66.5774C383.9 101.333 333.634 109.638 330.689 112.385C327.993 114.903 327.665 118.995 327.051 122.524C325.261 132.813 328.078 144.24 331.217 154.163Z" fill="#FFFFFE"/>
<path fill-rule="evenodd" clip-rule="evenodd" d="M255.642 63.8372C257.027 62.5166 258.933 60.8733 260.415 59.9222L260.413 59.8939C258.235 60.3932 253.197 61.0556 249.972 61.3746C249.912 60.8258 249.808 59.8694 249.722 59.3524C250.365 59.3119 261.53 58.2782 266.167 56.635L266.632 58.7516C263.222 59.5313 259.108 63.0233 257.41 64.7006L255.642 63.8372ZM270.264 77.0476C267.761 77.7866 264.414 78.3538 261.512 78.668C259.075 78.9312 256.939 79.0161 255.783 78.9068C252.185 78.506 250.436 76.4691 250.159 73.9201C249.917 71.6911 250.924 69.3283 252.448 67.4042L254.225 68.0905C252.781 69.946 252.054 71.8991 252.23 73.52C252.412 75.2013 253.711 76.6114 256.267 76.8925C257.309 77.0135 259.034 76.9443 261.038 76.7272C263.853 76.4225 267.194 75.8258 269.893 74.978L270.264 77.0476Z" fill="#333456"/>
<path fill-rule="evenodd" clip-rule="evenodd" d="M272.437 76.6393C273.811 70.8109 276.091 61.0836 276.831 58.1641C277.185 56.6801 277.664 54.5922 277.778 53.9108L280.762 54.34C280.669 54.7245 280.306 54.8976 279.769 54.9553C278.689 58.7412 277.083 65.183 276.379 67.9373L276.405 67.934C277.782 65.8573 280.053 64.2485 281.933 64.0471C284.272 63.7955 285.573 65.2359 285.761 67.7076L286.026 70.8671C286.215 72.8549 287.409 73.8258 289.156 73.6385C291.575 73.3794 293.506 70.4111 294.244 65.725C294.823 66.0387 295.505 66.3123 296.098 66.5182C295.174 71.7337 292.861 75.1955 289.289 75.5799C286.439 75.8848 284.399 74.39 284.103 71.6895C284.049 71.1863 283.863 68.7416 283.8 68.1856C283.618 66.5161 282.824 65.7178 281.642 65.844C278.551 66.1762 275.917 70.9333 275.435 72.7263C275.16 73.693 274.755 75.4513 274.412 77.0424L272.437 76.6393Z" fill="#333456"/>
<path fill-rule="evenodd" clip-rule="evenodd" d="M323.4 69.6667C322.44 69.8225 321.452 69.9545 320.459 70.062C318.558 70.2647 316.751 70.3525 315.444 70.3065C312.095 70.186 310.371 68.5563 310.14 66.4467C309.941 64.6275 310.792 62.9878 312.101 61.0876L313.925 61.6397C312.735 63.1538 311.936 64.5202 312.1 66.0222C312.436 69.0812 316.991 68.5931 319.779 68.2936C320.903 68.1733 322.105 67.9915 323.22 67.7915L323.4 69.6667ZM309.225 54.8879C312.674 54.4361 317.302 53.6211 320.799 52.6317L321.163 54.4605C317.901 55.37 312.552 56.2901 309.479 56.7006L309.225 54.8879ZM304.216 52.2236C304.167 52.5215 303.918 52.7076 303.377 52.7395C302.912 57.1379 302.947 61.9103 303.258 64.7574C303.475 66.7347 303.775 68.7303 304.178 69.9407C304.547 68.594 305.395 65.7017 305.67 64.7378L306.922 65.7788C306.116 68.5592 305.476 70.1481 305.23 71.3753C305.146 71.8377 305.112 72.2679 305.152 72.6378C305.184 72.927 305.267 73.1861 305.376 73.4409L303.511 73.9867C302.379 71.5736 301.722 68.5493 301.338 65.0419C300.958 61.5884 300.992 56.7032 301.35 52.0487L304.216 52.2236Z" fill="#333456"/>
<path fill-rule="evenodd" clip-rule="evenodd" d="M345.85 51.4061C342.444 52.6646 337.629 53.751 334.436 54.2027C334.45 57.5768 334.266 60.3773 333.942 61.4104C335.86 59.5033 338.994 58.0057 341.283 57.758C345.297 57.3265 347.98 59.1966 348.373 62.8001C348.953 68.1112 343.733 70.4821 335.003 71.6398C334.84 71.1436 334.564 70.3634 334.273 69.9358C341.986 68.9421 346.852 67.0949 346.413 63.066C346.151 60.6629 344.353 59.1829 341.229 59.5192C338.831 59.7778 334.869 61.6635 333.38 64.4977L331.398 63.8199C332.155 62.7646 332.628 58.8537 332.554 54.4325L326.251 55.1118L326.047 53.2431C327.182 53.1488 330.494 52.7916 332.514 52.5748C332.457 51.0411 332.324 49.3258 332.149 47.7249L335.034 47.6848C335.029 48.1441 334.715 48.2597 334.235 48.3645C334.327 49.7042 334.395 51.0758 334.424 52.3403C337.271 51.9531 342.159 50.8058 345.291 49.5236L345.85 51.4061Z" fill="#333456"/>
<path fill-rule="evenodd" clip-rule="evenodd" d="M370.236 62.1806C369.353 62.0089 368.424 61.8953 367.545 61.9896C365.921 62.1653 364.038 62.9564 364.221 64.6197C364.382 66.1 366.059 66.6679 368.005 66.4574C369.977 66.2449 370.592 65.2155 370.363 63.1029L370.236 62.1806ZM361.802 52.5854C364.042 52.3694 366.284 52.1545 368.505 51.7555C368.15 49.4953 367.857 47.5474 367.59 45.5986L370.29 45.3889C370.293 45.6549 370.075 45.8933 369.658 46.0186C369.869 47.7056 370.111 49.4175 370.382 51.4203C372.465 50.9814 374.13 50.4275 375.49 49.7995L375.932 51.6233C374.695 52.1575 372.897 52.7255 370.652 53.1548C371.078 56.0754 371.549 59.1534 371.814 60.835C373.928 61.4347 376.093 62.513 377.615 63.6032L376.761 65.4063C375.55 64.4419 373.851 63.4485 372.115 62.8603C372.333 65.1088 372.181 67.6645 368.184 68.0962C365.066 68.4323 362.827 67.1764 362.572 64.8527C362.278 62.1571 364.894 60.6716 367.346 60.407C368.171 60.3181 369.062 60.3306 369.914 60.4774C369.653 58.8216 369.19 56.0648 368.774 53.4912C367.955 53.6316 366.838 53.779 366.066 53.8625L362.016 54.2994L361.802 52.5854ZM356.73 68.8765C355.698 67.0627 354.947 63.1608 354.57 59.7003C354.187 56.186 354.266 51.7135 354.665 47.2074L357.304 47.4296C357.279 47.7002 357.032 47.9137 356.663 47.9807C356.098 51.7036 356.025 56.4692 356.359 59.5343C356.577 61.5413 356.824 63.5462 357.144 64.5006C357.556 62.853 358.345 60.202 358.77 58.9002L360.09 59.8797C359.407 61.7722 357.979 65.988 358.114 67.2303C358.156 67.5997 358.278 67.9875 358.52 68.469L356.73 68.8765Z" fill="#333456"/>
<path fill-rule="evenodd" clip-rule="evenodd" d="M182.618 233.069C191.34 229.554 200.171 224.898 202.961 215.93C196.467 212.565 189.902 209.151 184.394 204.345C176.537 197.489 171.141 187.879 169.384 177.611C167.625 167.343 169.518 156.49 174.648 147.417C180.04 137.88 193.866 128.218 223.043 125.701C254.16 123.018 274.002 141.492 275.908 154.184C277.816 166.876 274.62 180.101 267.951 191.074C262.886 199.408 255.634 206.685 246.58 210.342C239.2 213.323 231.087 213.765 223.187 214.76C221.637 214.955 219.952 215.243 218.911 216.406C218.152 217.255 208.715 226.446 202.929 228.837C197.141 231.229 191.518 232.773 184.288 233.025" fill="#FFFFFE"/>
<path fill-rule="evenodd" clip-rule="evenodd" d="M33.6142 376.828C25.7067 372.552 19.7641 369.664 16.4826 362.69C13.2011 355.719 12.4536 347.837 12.3017 340.133C11.8117 315.289 21.0023 287.579 33.0481 265.84C41.2337 251.066 51.8825 240.386 63.4924 234.142C69.9115 230.691 77.3525 229.139 84.5863 228.251C90.6314 227.51 96.0938 227.565 102.153 228.189C120.308 230.059 136.984 243.599 149.48 256.894C161.977 270.186 170.904 286.392 178.976 302.75C183.506 311.93 187.839 321.302 190.186 331.264C191.46 336.673 192.107 342.496 190.102 347.681C187.056 355.556 178.756 360.004 170.783 362.798C157.027 367.616 142.205 369.608 129.298 376.379C117.106 382.774 106.676 393.371 93.1035 395.682C81.9647 397.577 43.6403 382.036 33.6142 376.828Z" fill="white"/>
<path fill-rule="evenodd" clip-rule="evenodd" d="M109.758 268.815C121.899 269.471 134.661 268.705 146.332 265.185C149.621 264.193 152.841 263.032 156.03 261.792C154.309 259.74 152.523 257.738 150.647 255.807C138.285 243.082 121.785 230.126 103.807 228.355C97.8069 227.764 92.3972 227.717 86.4094 228.434C79.2443 229.293 71.8731 230.789 65.512 234.103C61.2866 236.305 57.1888 239.087 53.2918 242.42C66.8582 257.916 89.2372 267.707 109.758 268.815Z" fill="#C8E3F3"/>
<path fill-rule="evenodd" clip-rule="evenodd" d="M73.896 255.191C78.9184 262.542 84.251 270.911 91.5878 276.194C94.6404 278.394 98.1635 280.022 101.807 280.935C103.025 281.241 106.009 281.761 106.215 281.779C105.862 281.749 108.218 281.823 108.962 281.803C109.527 281.787 111.499 281.573 111.595 281.622C112.518 281.413 113.421 281.152 114.335 280.888C114.718 280.777 115.086 280.614 115.458 280.472C116.27 280.01 117.046 279.5 117.847 279.019C117.979 278.941 118.077 278.885 118.161 278.837C118.434 278.595 118.712 278.357 118.965 278.095C119.737 277.293 120.473 276.49 121.19 275.639C121.354 275.444 121.452 275.341 121.512 275.286C121.586 275.145 121.695 274.948 121.854 274.67C122.357 273.785 122.894 272.923 123.362 272.019C123.912 270.957 124.401 269.866 124.871 268.765L124.906 268.684C125.112 268.095 125.32 267.504 125.498 266.906C126.148 264.743 126.726 262.57 127.183 260.356C128.625 253.373 129.035 246.287 128.768 238.495C120.523 232.916 111.507 228.81 102.093 227.842C96.0237 227.217 90.552 227.161 84.4966 227.904C77.2505 228.793 69.7968 230.348 63.3668 233.804C62.7738 234.123 62.1852 234.462 61.598 234.804C65.2334 241.862 69.4326 248.659 73.896 255.191Z" fill="#F4C2B1"/>
<path fill-rule="evenodd" clip-rule="evenodd" d="M79.683 262.288C88.9999 266.298 98.9731 268.724 108.548 269.251C113.852 269.544 119.271 269.562 124.669 269.202C124.869 268.768 125.067 268.333 125.259 267.894L125.295 267.815C125.501 267.237 125.709 266.658 125.888 266.073C126.54 263.953 127.119 261.824 127.578 259.656C129.024 252.815 129.439 245.873 129.178 238.241C120.937 232.782 111.925 228.767 102.512 227.825C96.4427 227.217 90.9712 227.166 84.9154 227.898C77.6688 228.774 70.2142 230.303 63.7819 233.693C63.1886 234.006 62.5998 234.338 62.0124 234.673C65.6427 241.584 69.8369 248.239 74.2955 254.634C76.03 257.122 77.8036 259.729 79.683 262.288Z" fill="#F1B19E"/>
<path fill-rule="evenodd" clip-rule="evenodd" d="M71.0277 391.387C58.509 360.638 49.9732 328.254 50.0696 294.873C50.1267 274.663 52.2361 253.33 61.121 235.352C50.5685 241.792 40.9349 251.949 33.3835 265.575C21.255 287.46 12.0013 315.356 12.4945 340.367C12.6474 348.123 13.4 356.057 16.7039 363.076C20.0079 370.097 25.9912 373.003 33.953 377.309C40.0789 380.49 56.693 387.497 71.3195 392.092C71.2235 391.857 71.1237 391.623 71.0277 391.387Z" fill="#C8E3F3"/>
<path fill-rule="evenodd" clip-rule="evenodd" d="M45.9828 170.259C45.7177 164.022 50.1861 158.269 55.8088 155.483C61.4315 152.696 67.982 152.408 74.2387 152.964C77.5193 153.256 80.9226 153.752 84.0376 152.685C87.1525 151.619 89.8137 148.347 88.8759 145.208C93.0735 148.008 97.6305 150.918 102.685 150.802C107.739 150.686 112.941 145.955 111.474 141.146C114.864 143.916 118.656 146.55 123.016 147.042C126.24 147.405 129.462 146.559 132.595 145.72C134.844 145.117 137.247 144.419 138.715 142.621C140.182 140.822 140.003 137.566 137.834 136.724C139.918 138.481 142.991 138.989 145.537 138.001C148.084 137.013 149.997 134.568 150.333 131.872C150.758 128.479 148.841 125.208 146.488 122.713C141.351 117.266 134.085 114.305 126.825 112.388C114.051 109.015 100.694 108.401 87.4786 108.681C75.7438 108.929 63.8245 109.911 52.8746 114.117C41.9246 118.321 31.9377 126.14 27.403 136.902C27.1399 137.524 26.8471 138.183 26.2675 138.534C10.626 148.013 16.7976 188.399 24.6357 204.009C29.1514 213.001 35.2954 222.294 42.6034 229.24C49.9127 236.186 67.0969 248.344 68.5482 247.353C71.2555 245.507 67.359 228.04 67.1149 224.788C65.8182 207.454 48.0863 189.759 45.9828 170.259Z" fill="#201D2D"/>
<path fill-rule="evenodd" clip-rule="evenodd" d="M61.3838 209.923C53.8318 203.126 47.6262 193.915 43.2772 185.356C37.1047 173.211 34.3166 159.401 38.3466 146.034C42.4331 132.483 51.5743 121.668 63.2214 114.223C65.8772 112.526 68.6399 110.946 71.4868 109.488C64.7293 110.228 58.0707 111.579 51.745 114.077C41.0898 118.28 31.3759 126.109 26.9724 136.894C26.717 137.518 26.4326 138.178 25.8688 138.53C10.652 148.017 16.7009 188.514 24.347 204.173C28.752 213.193 34.7425 222.516 41.8636 229.488C48.986 236.459 65.7266 248.667 67.1384 247.674C69.772 245.827 65.9611 228.31 65.7201 225.049C65.3518 220.049 63.657 215.018 61.3838 209.923Z" fill="#201D2D"/>
<path fill-rule="evenodd" clip-rule="evenodd" d="M140.297 138.272C152.069 157.833 158.973 180.241 160.237 202.98C160.859 214.154 159.987 225.902 154.167 235.502C144.017 252.244 122.037 257.69 102.316 257.988C88.0596 258.203 72.141 255.678 63.4433 244.504C59.0187 238.82 57.1164 231.655 55.3171 224.704C53.1935 216.503 54.7817 222.387 52.658 214.186C52.3042 212.817 51.9261 211.402 51.0313 210.3C48.4945 207.182 43.5534 208.127 39.6572 207.047C33.5994 205.368 30.3197 197.743 32.7676 192.005C35.2167 186.267 42.3975 183.214 48.4789 184.81C44.4576 174.34 36.8889 147.858 43.0573 138.46C46.2725 133.563 50.2184 125.898 55.7485 123.861C69.8921 118.652 83.1086 115.885 98.1902 116.261C111.458 116.592 127.572 120.815 140.297 138.272Z" fill="#F4C2B1"/>
<path fill-rule="evenodd" clip-rule="evenodd" d="M71.2821 233.802C65.1123 223.872 60.4856 212.269 58.1973 200.788C55.759 188.554 55.2255 174.304 64.3392 164.554C69.721 158.796 77.1574 157.365 84.3309 155.104C87.5038 154.103 91.1504 152.878 93.3334 150.216C95.7812 147.231 96.8834 142.892 98.9567 139.604C99.7025 138.422 100.622 137.394 101.662 136.559C106.759 129.643 116.038 126.369 125.495 125.195C115.974 118.447 105.826 116.415 96.9693 116.185C82.1465 115.8 69.1587 118.559 55.2611 123.76C49.8272 125.794 45.9537 133.455 42.7967 138.351C36.7399 147.745 44.1945 174.231 48.153 184.704C42.1751 183.104 35.1195 186.153 32.7158 191.889C30.3134 197.626 33.5414 205.253 39.4962 206.935C43.3261 208.017 48.1818 207.075 50.6769 210.196C51.5569 211.298 51.9293 212.713 52.2779 214.082C54.37 222.285 52.8056 216.399 54.8977 224.602C56.6702 231.554 58.5442 238.72 62.8962 244.406C71.4512 255.585 87.0979 258.12 101.109 257.914C101.802 257.904 102.499 257.884 103.196 257.861C90.1511 253.55 78.695 245.732 71.2821 233.802Z" fill="#F1B19E"/>
<path fill-rule="evenodd" clip-rule="evenodd" d="M145.695 121.816C140.556 116.296 133.288 113.295 126.026 111.349C113.25 107.928 99.8921 107.3 86.6754 107.578C74.9399 107.823 63.0202 108.813 52.0714 113.068C41.1225 117.32 31.1383 125.235 26.6081 136.133C26.3453 136.763 26.0528 137.43 25.4733 137.786C17.6632 142.577 15.3027 155.176 15.8708 168.559C19.1044 167.965 22.3984 167.604 25.8028 167.485C29.9624 167.341 33.774 168.055 37.5695 168.95C38.6994 168.832 41.275 176.565 42.6039 176.943C43.9566 177.327 47.5352 184.509 48.8577 184.92C48.8369 184.751 48.8048 184.58 48.7864 184.411C42.7827 163.796 49.4024 157.784 55.0242 154.964C60.6448 152.144 67.1969 151.855 73.4543 152.422C76.7352 152.719 80.139 153.222 83.2537 152.143C86.3684 151.065 89.0284 147.752 88.0891 144.572C92.2882 147.411 96.8468 150.359 101.902 150.244C106.956 150.129 112.156 145.34 110.687 140.469C114.079 143.275 117.872 145.945 122.233 146.445C125.456 146.815 128.678 145.959 131.811 145.111C134.061 144.501 136.463 143.795 137.931 141.974C139.124 140.492 139.227 138.033 138.054 136.708C140.049 137.893 142.588 138.149 144.751 137.299C147.298 136.299 149.21 133.824 149.545 131.094C149.968 127.657 148.049 124.343 145.695 121.816Z" fill="#333456"/>
<path fill-rule="evenodd" clip-rule="evenodd" d="M38.0525 147.533C42.1449 134.132 51.2914 123.434 62.9427 116.068C65.5995 114.388 68.3631 112.825 71.2109 111.382C64.4524 112.117 57.7925 113.455 51.4651 115.927C40.807 120.088 31.0889 127.833 26.6807 138.5C26.4251 139.116 26.1404 139.769 25.5763 140.117C17.9741 144.806 15.6785 157.138 16.234 170.238C19.3818 169.658 22.5885 169.304 25.9027 169.189C29.917 169.05 33.5982 169.737 37.2614 170.603C35.6764 163.037 35.7082 155.212 38.0525 147.533Z" fill="#201D2D"/>
<path fill-rule="evenodd" clip-rule="evenodd" d="M92.7408 179.414C93.4478 184.355 92.7565 188.621 91.1979 188.942C89.6405 189.262 87.8055 185.515 87.0996 180.573C86.3926 175.633 87.0829 171.367 88.6414 171.046C90.1999 170.726 92.035 174.473 92.7408 179.414Z" fill="#1D1B35"/>
<path fill-rule="evenodd" clip-rule="evenodd" d="M131.962 173.779C132.668 178.721 131.977 182.987 130.42 183.307C128.861 183.628 127.026 179.882 126.32 174.94C125.614 169.998 126.304 165.732 127.862 165.412C129.419 165.091 131.255 168.837 131.962 173.779Z" fill="#1D1B35"/>
<path fill-rule="evenodd" clip-rule="evenodd" d="M80.538 175.667L79.9537 175.544L80.5381 175.671L80.538 175.667L79.9537 175.544L80.5381 175.671C80.5386 175.646 81.0018 173.586 82.2603 171.641C82.8869 170.667 83.7017 169.728 84.7196 169.035C85.7427 168.341 86.9591 167.869 88.5498 167.809C89.4257 167.779 90.1116 167.036 90.0808 166.152C90.0499 165.267 89.3138 164.574 88.4379 164.605C86.2165 164.679 84.3392 165.401 82.8694 166.426C80.6571 167.97 79.3339 170.113 78.53 171.84C77.7289 173.575 77.4471 174.927 77.4282 175.009C77.2497 175.875 77.7992 176.725 78.6583 176.907C79.5173 177.089 80.3583 176.533 80.538 175.667Z" fill="#333456"/>
<path fill-rule="evenodd" clip-rule="evenodd" d="M126.192 161.86L126.043 160.962L126.18 161.863L126.192 161.86L126.043 160.962L126.18 161.863L126.28 161.85C126.347 161.843 126.449 161.834 126.578 161.829C127.193 161.806 128.414 161.885 129.737 162.589C131.061 163.302 132.538 164.604 133.773 167.316C134.143 168.134 135.048 168.473 135.796 168.076C136.545 167.678 136.851 166.694 136.482 165.877C134.993 162.565 132.952 160.636 131.047 159.633C129.141 158.624 127.42 158.508 126.463 158.54C126 158.556 125.71 158.608 125.651 158.62C124.829 158.777 124.286 159.631 124.435 160.526C124.586 161.42 125.372 162.019 126.192 161.86Z" fill="#333456"/>
<path fill-rule="evenodd" clip-rule="evenodd" d="M117.839 171.439C119.785 181.399 128.031 189.434 133.332 198.438C133.746 199.142 134.152 199.894 134.079 200.682C133.989 201.631 133.215 202.443 132.338 203.042C128.587 205.594 123.047 205.698 118.525 204.427C113.015 202.881 117.839 171.439 117.839 171.439Z" fill="#E98B7F"/>
<path fill-rule="evenodd" clip-rule="evenodd" d="M158.584 198.656C159.909 204.64 161.463 209.116 163.961 214.553C166.325 219.697 170.238 224.081 172.041 229.447C173.038 232.414 173.485 235.828 171.961 238.562C170.435 241.294 166.315 242.634 164.052 240.472C164.914 248.469 160.514 256.783 153.414 260.563C149.933 262.418 145.317 263.095 142.258 260.605C142.507 263.438 140.55 266.014 138.317 267.777C130.57 273.89 118.163 272.916 111.465 265.669C105.902 272.405 90.877 274.492 83.639 269.599C80.2221 267.29 76.5719 263.949 74.6698 260.289C67.2985 246.11 62.1955 234.055 66.101 220.092C70.864 203.05 93.9097 206.209 98.7099 207.538C106.373 209.66 112.382 211.914 120.542 211.066C124.969 210.605 128.394 209.243 131.824 207.272C139.67 202.763 149.82 199.684 158.807 198.63" fill="#333456"/>
<path fill-rule="evenodd" clip-rule="evenodd" d="M136.302 264.285C128.05 260.956 119.835 256.977 114.248 249.905C105.876 239.307 100.133 223.172 104.233 209.693C102.265 209.16 100.254 208.567 98.1094 207.982C93.3672 206.689 70.598 203.621 65.8839 220.233C62.0185 233.845 67.055 245.591 74.3316 259.409C76.2093 262.975 79.8144 266.229 83.1894 268.478C90.3387 273.244 105.185 271.203 110.685 264.634C117.3 271.695 129.558 272.639 137.215 266.677C137.775 266.24 138.318 265.752 138.811 265.223C137.973 264.921 137.135 264.621 136.302 264.285Z" fill="#201D2D"/>
<path fill-rule="evenodd" clip-rule="evenodd" d="M114.285 239.797C109.104 240.019 103.738 239.146 99.5244 236.407C95.3108 233.668 92.4763 228.833 93.2326 224.02C93.4059 222.91 93.7726 221.801 94.4664 220.877C96.7892 217.783 101.727 217.829 105.48 219.049C109.234 220.268 112.781 221.321 116.779 221.153C119.036 221.059 121.193 220.647 123.412 220.222C125.631 219.796 128.205 220.444 129.903 221.8C130.877 222.576 131.459 223.695 131.969 224.795C132.682 226.335 133.318 227.964 133.254 229.656C133.159 232.146 131.517 234.448 129.39 235.987C127.263 237.527 119.516 239.782 114.285 239.797Z" fill="#FFFFFE"/>
<path fill-rule="evenodd" clip-rule="evenodd" d="M131.811 225.396C119.47 230.179 105.91 231.199 93.0039 226.396C93.0272 230.39 95.664 234.219 99.3921 236.495C103.599 239.065 108.963 239.876 114.145 239.657C119.377 239.632 127.128 237.492 129.259 236.038C131.389 234.584 133.036 232.414 133.136 230.069C133.204 228.476 132.571 226.944 131.861 225.495L131.811 225.396Z" fill="#E98B7F"/>
<path fill-rule="evenodd" clip-rule="evenodd" d="M261.66 462.665L261.659 462.654L261.66 462.665Z" fill="#333456"/>
<path fill-rule="evenodd" clip-rule="evenodd" d="M261.703 462.877L261.704 462.877C261.669 462.732 261.64 462.586 261.616 462.442C261.64 462.588 261.669 462.734 261.703 462.877Z" fill="#333456"/>
<path fill-rule="evenodd" clip-rule="evenodd" d="M261.561 465.668L261.549 465.648L261.561 465.668Z" fill="#333456"/>
<path fill-rule="evenodd" clip-rule="evenodd" d="M261.577 465.699L261.534 465.617L261.577 465.699Z" fill="#333456"/>
<path fill-rule="evenodd" clip-rule="evenodd" d="M261.434 464.302C261.522 464.549 261.626 464.787 261.745 465.015C261.624 464.784 261.522 464.543 261.436 464.302L261.434 464.302Z" fill="#333456"/>
<path fill-rule="evenodd" clip-rule="evenodd" d="M225.385 158.605L227.86 158.518L228.549 178.267L226.074 178.353L225.385 158.605ZM190.108 160.956L192.663 160.867L192.953 169.171L203.598 168.799L203.308 160.495L205.89 160.405L206.54 179.035L203.959 179.125L203.679 171.114L193.034 171.486L193.313 179.497L190.758 179.586L190.108 160.956ZM216.106 164.525C218.288 164.449 219.96 165.034 221.123 166.282C222.286 167.529 222.907 169.297 222.987 171.586C222.999 171.941 223 172.207 222.988 172.385L211.864 172.774C212.103 174.027 212.666 175.011 213.552 175.726C214.439 176.441 215.512 176.777 216.772 176.733C217.606 176.704 218.377 176.526 219.085 176.199C219.793 175.872 220.403 175.425 220.916 174.856L222.323 176.219C221.657 176.988 220.843 177.594 219.882 178.036C218.92 178.479 217.845 178.72 216.656 178.762C215.272 178.81 214.033 178.556 212.939 177.999C211.845 177.442 210.982 176.633 210.349 175.571C209.717 174.51 209.377 173.287 209.329 171.903C209.28 170.519 209.535 169.28 210.092 168.186C210.648 167.091 211.448 166.22 212.492 165.57C213.535 164.921 214.739 164.573 216.106 164.525ZM219.329 167.57C220.136 168.279 220.597 169.271 220.712 170.546L211.77 170.858C211.886 169.593 212.343 168.573 213.142 167.799C213.941 167.025 214.962 166.617 216.204 166.573C217.481 166.529 218.523 166.861 219.329 167.57ZM234.779 158.277L232.304 158.363L232.994 178.111L235.469 178.025L234.779 158.277ZM245.141 163.511C246.542 163.462 247.799 163.72 248.912 164.285C250.024 164.85 250.905 165.659 251.554 166.711C252.204 167.763 252.553 168.981 252.601 170.365C252.649 171.749 252.386 172.993 251.812 174.097C251.238 175.2 250.416 176.073 249.346 176.714C248.275 177.356 247.04 177.701 245.638 177.75C244.219 177.799 242.953 177.542 241.841 176.976C240.728 176.411 239.847 175.603 239.198 174.551C238.548 173.498 238.199 172.272 238.15 170.87C238.102 169.486 238.365 168.246 238.94 167.152C239.514 166.057 240.336 165.189 241.407 164.547C242.477 163.906 243.721 163.56 245.141 163.511ZM242.777 166.391C243.48 165.941 244.293 165.699 245.216 165.667C246.121 165.635 246.94 165.82 247.673 166.22C248.407 166.621 248.986 167.192 249.412 167.932C249.837 168.672 250.067 169.521 250.1 170.479C250.134 171.455 249.965 172.331 249.593 173.108C249.22 173.885 248.682 174.495 247.978 174.937C247.274 175.379 246.469 175.616 245.565 175.647C244.642 175.68 243.814 175.5 243.081 175.108C242.348 174.716 241.768 174.146 241.343 173.396C240.917 172.647 240.687 171.785 240.653 170.809C240.619 169.851 240.789 168.988 241.162 168.22C241.535 167.452 242.073 166.842 242.777 166.391ZM254.442 158.976L256.837 158.892L256.996 163.443L256.879 171.548L255.256 171.605L254.601 163.527L254.442 158.976ZM257.222 174.867C256.937 174.593 256.59 174.463 256.182 174.477C255.774 174.491 255.433 174.645 255.159 174.939C254.885 175.233 254.756 175.602 254.771 176.045C254.787 176.489 254.942 176.852 255.236 177.135C255.53 177.418 255.881 177.552 256.289 177.538C256.697 177.524 257.033 177.365 257.298 177.063C257.563 176.761 257.688 176.388 257.672 175.944C257.657 175.5 257.506 175.141 257.222 174.867Z" fill="#333456"/>
</svg>
